<svg clip-rule="evenodd" fill-rule="evenodd" stroke-miterlimit="10" viewBox="0 0 139 184" xmlns="http://www.w3.org/2000/svg" xmlns:xlink="http://www.w3.org/1999/xlink"><clipPath id="a"><path clip-rule="evenodd" d="m-29.155 80.113c0 54.462 44.144 98.604 98.601 98.604 54.455 0 98.602-44.142 98.602-98.604 0-54.461-44.147-98.606-98.602-98.606-54.457 0-98.601 44.145-98.601 98.606z"/></clipPath><g clip-path="url(#a)"><path d="m97.717 133.796s-.766.155-1.719.792c-.406-2.663-.928-9.472-1.185-12.204-6.531 9.805-15.485 15.861-25.369 15.861-9.881 0-18.835-6.056-25.366-15.861-.258 2.732-.782 9.541-1.185 12.204-.954-.637-1.719-.792-1.719-.792s-34.623 13.24-40.676 17.214c16.363 19.902 41.174 32.595 68.946 32.595 27.775 0 52.583-12.693 68.945-32.595-6.052-3.974-40.672-17.214-40.672-17.214" fill="#cececd" fill-rule="nonzero"/><path d="m95.611 35.045c-7.228-10.127-23.011-1.688-23.011-1.688-1.736.928-4.577.929-6.313.001 0 0-15.787-8.44-23.012 1.687-7.227 10.135-.939 33.242-.939 33.242.517 1.899 1.598 4.923 2.403 6.72 0 0 14.982 33.426 24.704 33.426 9.723 0 24.704-33.426 24.704-33.426.805-1.797 1.887-4.821 2.403-6.72 0 0 6.285-23.107-.939-33.242" fill="#cececd" fill-rule="nonzero"/><path d="m110.475 62.923v-.073c.03-1.359-.733-2.247-1.766-2.716-.059-.03-.112-.069-.175-.096-.033-.013-.072-.019-.105-.032-.845-.327-1.835-.374-2.769-.136-.264.063-.525.142-.766.248.001-1 4.275-21.191 2.05-29.917-.403-1.573-.9-3.135-1.548-4.678-5.653-13.431-20.274-20.068-33.795-20.751-.075-.003-.154-.008-.228-.009-.639-.03-1.286-.03-1.93-.033-.644.003-1.291.003-1.928.033-.075.001-.15.006-.231.009-13.521.683-28.141 7.32-33.791 20.751-.649 1.543-1.148 3.105-1.548 4.678-2.223 8.726 2.046 28.917 2.046 29.917-.237-.106-.498-.185-.762-.248-.936-.238-1.926-.191-2.772.136-.033.013-.073.019-.105.032-.063.027-.113.066-.176.096-1.032.469-1.795 1.357-1.762 2.716 0 .023-.002.09-.002.103 0 2.224.306 3.772.576 5.125.467 2.548 1.152 5.109 1.906 7.538.421 1.614.897 3.445 1.576 5.095.341.924.772 1.783 1.341 2.476.007.009.013.023.019.029.115.159.251.294.387.433.082.076.167.155.254.227.062.05.119.116.185.165.085.06.181.109.273.159.007.003.014.006.021.01.201.109.418.181.642.227.033.007.063.01.096.014.224.036.459.046.703.006h.011c1.005-.158 1.399 1.043 1.669 1.918.547 1.735 8.36 18.141 14.887 27.359.017.026.036.056.057.082 3.986 5.588 8.804 6.918 16.421 6.918h.014c7.617 0 12.439-1.33 16.426-6.918.019-.026.035-.056.055-.082 6.525-9.218 14.336-25.624 14.884-27.359.271-.875.663-2.076 1.67-1.918h.013c.244.04.479.03.7-.006.033-.004.066-.007.096-.014.227-.046.442-.118.646-.227.004-.004.01-.007.017-.01.096-.05.188-.099.277-.159.063-.049.119-.115.182-.165.089-.072.171-.151.254-.231.135-.135.27-.27.389-.429.007-.01.01-.02.02-.033.564-.693 1-1.551 1.337-2.472.68-1.65 1.155-3.481 1.577-5.095.753-2.429 1.439-4.99 1.908-7.538.27-1.353.462-2.706.534-4.05 0-.003.004-.003.004-.006.016-.307.026-.584.029-.861.004-.073.007-.142.007-.208z" fill="none" stroke="#231f20" stroke-width=".9"/></g></svg>