<svg clip-rule="evenodd" fill-rule="evenodd" stroke-miterlimit="10" viewBox="0 0 139 184" xmlns="http://www.w3.org/2000/svg" xmlns:xlink="http://www.w3.org/1999/xlink"><clipPath id="a"><path clip-rule="evenodd" d="m-29.754 80.113c0 54.462 44.148 98.604 98.602 98.604 54.455 0 98.602-44.142 98.602-98.604 0-54.461-44.147-98.606-98.602-98.606-54.454 0-98.602 44.145-98.602 98.606z"/></clipPath><g clip-path="url(#a)"><g fill-rule="nonzero"><path d="m69.815 117.568c-10.376 0-29.105-22.891-29.105-51.131 0-28.237 7.294-51.128 29.105-51.128s29.105 22.891 29.105 51.128c0 28.24-18.729 51.131-29.105 51.131" fill="#cececd"/><path d="m69.812 4.729c.647.003 1.294.003 1.931.033-.647-.025-1.288-.036-1.931-.033"/><path d="m67.657 4.772c.076-.003.155-.008.231-.01-.076.003-.155.005-.231.01"/><path d="m67.888 4.762c.637-.03 1.28-.03 1.924-.033-.637-.003-1.28.008-1.924.033"/><path d="m71.742 4.762c.076.002.152.007.231.01-.079-.005-.155-.007-.231-.01"/></g><path d="m110.844 62.923v-.073c.033-1.359-.733-2.247-1.766-2.716-.059-.03-.112-.069-.175-.096-.033-.013-.069-.019-.102-.032-.848-.327-1.838-.374-2.772-.136-.264.063-.525.142-.762.248 0-1 .036-2 .069-3 .294-9.026-.726-18.191-2.951-26.917-.402-1.573-.901-3.135-1.547-4.678-5.654-13.431-15.347-20.068-28.864-20.751-.08-.003-.156-.008-.232-.009-.636-.03-1.283-.03-1.93-.033-.644.003-1.287.003-1.924.033-.076.001-.155.006-.231.009-13.521.683-23.218 7.32-28.868 20.751-.65 1.543-1.148 3.105-1.547 4.678-2.225 8.726-3.241 17.891-2.951 26.917.033 1 .073 2 .073 3-.238-.106-.499-.185-.763-.248-.937-.238-1.927-.191-2.772.136-.033.013-.072.019-.105.032-.063.027-.112.066-.175.096-1.033.469-1.796 1.357-1.766 2.716 0 .023.003.047.003.073 0 .01-.003.017-.003.03 0 .066.007.135.007.208.003.277.013.554.033.861v.006c.072 1.344.267 2.697.538 4.05.465 2.548 1.151 5.109 1.904 7.538.422 1.614.897 3.445 1.577 5.095.34.924.773 1.783 1.34 2.476.007.009.01.023.02.029.116.159.251.294.386.433.083.076.165.155.254.227.063.05.119.116.185.165.086.06.182.109.274.159.007.003.013.006.017.01.204.109.419.181.646.227.034.007.063.01.096.014.225.036.456.046.7.006h.013c1.006-.158.851 1.043 1.122 1.918.548 1.735 3.432 18.141 9.957 27.359.02.026.04.056.059.082 3.987 5.588 14.281 15.68 21.898 15.68h.009c7.621 0 17.914-10.092 21.901-15.68.02-.026.036-.056.056-.082 6.525-9.218 9.409-25.624 9.96-27.359.268-.875.116-2.076 1.122-1.918h.01c.244.04.479.03.703-.006.033-.004.063-.007.096-.014.224-.046.442-.118.643-.227.007-.004.01-.007.02-.01.093-.05.185-.099.274-.159.066-.049.119-.115.182-.165.089-.072.171-.151.254-.231.138-.135.274-.27.389-.429.007-.01.013-.02.02-.033.564-.693 1-1.551 1.337-2.472.683-1.65 1.158-3.481 1.577-5.095.753-2.429 1.439-4.99 1.908-7.538.27-1.353.465-2.706.538-4.05v-.006c.016-.307.026-.584.033-.861 0-.073.006-.142.006-.208 0-.013-.003-.02-.003-.03z" fill="none" stroke="#231f20" stroke-width=".9"/><path d="m97.603 133.796s-.762.155-1.719.792c-.403-2.663-.924-9.472-1.185-12.204-6.531 9.805-15.485 15.861-25.366 15.861s-18.834-6.056-25.366-15.861c-.257 2.732-.782 9.541-1.184 12.204-.958-.637-1.72-.792-1.72-.792s-34.623 13.24-40.676 17.214c16.363 19.902 41.171 32.595 68.946 32.595s52.583-12.693 68.946-32.595c-6.053-3.974-40.676-17.214-40.676-17.214" fill="#cececd" fill-rule="nonzero"/></g></svg>