<svg clip-rule="evenodd" fill-rule="evenodd" stroke-miterlimit="10" viewBox="0 0 139 180" xmlns="http://www.w3.org/2000/svg" xmlns:xlink="http://www.w3.org/1999/xlink"><clipPath id="a"><path clip-rule="evenodd" d="m-29.359 75.613c0 54.462 44.148 98.604 98.602 98.604s98.602-44.142 98.602-98.604c0-54.461-44.148-98.606-98.602-98.606s-98.602 44.145-98.602 98.606z"/></clipPath><g clip-path="url(#a)"><path d="m100.427 63.013c0 23.96-13.825 43.379-30.88 43.379-17.056 0-30.881-19.419-30.881-43.379s7.501-43.38 30.881-43.38c23.379 0 30.88 19.42 30.88 43.38" fill="#cececd" fill-rule="nonzero"/><path d="m111.368 58.35c.069-2.891-3.413-3.709-5.588-2.729 0-9.498 1.248-13.643-.188-23.085-2.537-16.286-16.738-26.639-32.51-27.812-15.924-1.185-31.676 5.289-38.148 20.676-4.244 10.093-2.653 16.565-2.31 27.218.033 1 .072 2.003.072 3.003-2.346-1.06-5.58-.076-5.58 2.832 0 4.009 1.28 8.171 2.313 12.022.7 2.601 1.462 6.04 3.106 8.241.61.822 1.498 1.413 2.557 1.241 1.007-.159.855 1.043 1.126 1.917.399 1.268.818 8.007 1.297 9.244 2.591 6.677 5.881 13.248 10.009 19.116 4.04 5.752 9.776 9.22 16.696 10.379 6.103 1.019 12.657.181 18.201-2.627 6.353-3.228 9.921-9.544 13.251-15.548 1.845-3.175 3.396-6.527 4.742-9.943.66-1.7 1.294-8.878 1.842-10.621.271-.874.119-2.076 1.125-1.917.621.099 1.235-.053 1.746-.416 2.003-1.426 2.601-4.795 3.31-7.003 1.33-4.106 2.588-8.696 2.895-13.016.023-.419.036-.779.036-1.172.033-1.389 0 .03 0 0z" fill="none" stroke="#231f20" stroke-width=".9"/><path d="m97.52 129.296s-.766.155-1.719.792c-.406-2.663-.928-9.472-1.185-12.204-6.531 9.805-15.485 15.861-25.366 15.861-9.884 0-18.838-6.056-25.369-15.861-.258 2.732-.782 9.541-1.185 12.204-.954-.637-1.719-.792-1.719-.792s-34.623 13.24-40.676 17.214c16.363 19.902 41.174 32.595 68.949 32.595 27.771 0 52.58-12.693 68.942-32.595-6.049-3.974-40.672-17.214-40.672-17.214" fill="#cececd" fill-rule="nonzero"/></g></svg>