<svg clip-rule="evenodd" fill-rule="evenodd" stroke-miterlimit="10" viewBox="0 0 139 177" xmlns="http://www.w3.org/2000/svg" xmlns:xlink="http://www.w3.org/1999/xlink"><clipPath id="a"><path clip-rule="evenodd" d="m-30.801 72.613c0 54.462 44.144 98.604 98.602 98.604 54.454 0 98.598-44.142 98.598-98.604 0-54.461-44.144-98.606-98.598-98.606-54.458 0-98.602 44.145-98.602 98.606z"/></clipPath><g clip-path="url(#a)"><path d="m97.569 126.296s-.762.155-1.719.792c-.403-2.663-.925-9.472-1.182-12.204-6.534 9.805-15.488 15.861-25.369 15.861s-18.835-6.056-25.366-15.861c-.26 2.732-.782 9.541-1.185 12.204-.957-.637-1.719-.792-1.719-.792s-34.623 13.24-40.676 17.214c16.363 19.902 41.171 32.595 68.946 32.595s52.583-12.693 68.946-32.595c-6.053-3.974-40.676-17.214-40.676-17.214" fill="#cececd" fill-rule="nonzero"/><path d="m111.476 55.581c-.003-.258-.053-.475-.092-.7-.04-.204-.08-.409-.149-.587-.02-.05-.046-.089-.066-.135-.789-1.707-3.036-2.238-4.855-1.717-.125.037-.257.063-.376.106h-.003c0-.188-.01-.38-.01-.568-.01-.904-.033-1.808-.076-2.709-.013-.261-.023-.518-.04-.776-.204-3.574-.643-7.132-1.105-10.679-.106-.822-.202-1.657-.297-2.495-.086-.634-.172-1.271-.254-1.905-.499-3.773-1.377-7.366-2.961-10.709-.917-1.792-1.987-3.506-3.211-5.11-.251-.317-.498-.637-.755-.944-.228-.276-.463-.543-.697-.812-3.97-4.427-8.963-7.705-14.653-9.442-.076-.025-.155-.05-.234-.073-.947-.282-1.915-.526-2.901-.721-3.023-.599-6.228-.917-9.459-.939-3.228.022-6.432.34-9.455.939-.987.195-1.954.439-2.901.721-.079.023-.158.048-.238.073-5.686 1.737-10.679 5.015-14.65 9.442-.234.269-.468.536-.696.812-.261.307-.505.627-.756.944-1.224 1.604-2.293 3.318-3.211 5.11-1.584 3.343-2.465 6.936-2.96 10.709-.082.634-.168 1.271-.254 1.905-.096.838-.192 1.673-.3 2.495-.459 3.547-.898 7.109-1.106 10.683-.013.257-.027.511-.036.765-.043.908-.066 1.812-.076 2.716 0 .192-.01.38-.01.568h-.003c-.119-.043-.255-.069-.38-.106-1.815-.521-4.063.01-4.852 1.717-.019.046-.046.085-.065.135-.073.178-.109.383-.149.587-.039.225-.089.442-.092.7.247 4.343 1.415 8.531 2.399 12.755.145.618.297 1.363.478 2.149.116.396.228.795.344 1.185.511 1.745 1.346 3.983 3.069 4.815.036.02.076.039.115.056.228.096.466.175.723.221.017 0 .027.006.043.01l.023.007c.644.122.97.528 1.162 1.046.502 1.092.515 2.752.67 3.693.409 2.442.789 4.884 1.201 7.32.779 4.63 1.624 9.286 3.007 13.781.003.01.006.024.01.034 1.283 4.145 3.788 6.518 7.613 8.451.875.443 1.773.849 2.674 1.235.244.102.485.201.729.3.389.162.792.3 1.188.449.683.261 1.373.512 2.069.736.41.135.822.251 1.238.373.643.191 1.29.376 1.944.538.422.102.845.194 1.267.287.66.145 1.323.284 1.987.399.449.079.897.146 1.346.208.654.096 1.307.185 1.964.254.482.05.96.083 1.442.119.614.043 1.231.086 1.845.106.548.019 1.096.023 1.64.023.548 0 1.096-.004 1.64-.023.618-.02 1.235-.063 1.848-.106.482-.036.961-.069 1.443-.119.653-.069 1.31-.158 1.963-.254.449-.062.898-.129 1.347-.208.663-.115 1.323-.254 1.983-.399.426-.093.849-.185 1.271-.287.653-.162 1.3-.347 1.944-.538.416-.122.828-.238 1.237-.373.697-.224 1.383-.475 2.07-.736.396-.149.795-.287 1.188-.449.244-.099.485-.198.726-.3.904-.386 1.802-.792 2.676-1.235 3.825-1.933 6.33-4.306 7.614-8.451.003-.01.007-.024.01-.034 1.383-4.495 2.228-9.151 3.006-13.781.41-2.436.793-4.878 1.198-7.32.159-.941.172-2.601.674-3.693.191-.518.518-.924 1.161-1.046 0 0 .014-.007.023-.007.014-.004.027-.01.043-.01.258-.046.495-.125.723-.221.04-.017.076-.036.116-.056 1.719-.832 2.554-3.07 3.069-4.815.115-.39.228-.789.343-1.185.182-.786.333-1.531.479-2.149.983-4.224 2.151-8.412 2.399-12.755z" fill="none" stroke="#231f20" stroke-width=".9"/><path d="m98.047 80.924c0 6.838-5.545 12.383-12.383 12.383h-32.732c-6.838 0-12.382-5.545-12.382-12.383v-32.739c0-6.841 5.544-12.382 12.382-12.382h32.732c6.838 0 12.383 5.541 12.383 12.382z" fill="#cececd" fill-rule="nonzero"/></g></svg>